<svg width="108" height="46" viewBox="0 0 108 46" fill="none" xmlns="http://www.w3.org/2000/svg">
<path d="M103.394 19.2733H90.6668C88.8599 19.2733 87.3935 17.8069 87.3935 16C87.3935 14.1931 88.8599 12.7267 90.6668 12.7267H103.394C105.2 12.7267 106.667 14.1931 106.667 16C106.667 17.8069 105.227 19.2733 103.394 19.2733Z" fill="#00C07F"/>
<path d="M103.393 31.9738H90.6667C81.8419 31.9738 74.6667 24.7987 74.6667 15.9738C74.6929 7.17512 81.8681 0 90.6929 0H103.42C105.226 0 106.693 1.46645 106.693 3.27332C106.693 5.0802 105.226 6.54665 103.42 6.54665H90.6929C85.4818 6.54665 81.2396 10.7889 81.2396 16C81.2396 21.2111 85.4818 25.4534 90.6929 25.4534H103.42C105.226 25.4534 106.693 26.9198 106.693 28.7267C106.693 30.5336 105.226 31.9738 103.393 31.9738Z" fill="white"/>
<path d="M53.3333 31.9738C44.5084 31.9738 37.3333 24.7987 37.3333 15.9738V3.27332C37.3333 1.46645 38.7997 0 40.6066 0C42.4134 0 43.8799 1.46645 43.8799 3.27332V16C43.8799 21.2111 48.1221 25.4534 53.3333 25.4534C58.5444 25.4534 62.7866 21.2111 62.7866 16V3.27332C62.7866 1.46645 64.2531 0 66.0599 0C67.8668 0 69.3333 1.46645 69.3333 3.27332V16C69.3071 24.7987 62.1319 31.9738 53.3333 31.9738Z" fill="white"/>
<path d="M53.3333 19.2733C51.5264 19.2733 50.06 17.8069 50.06 16V3.27332C50.06 1.46645 51.5264 0 53.3333 0C55.1402 0 56.6066 1.46645 56.6066 3.27332V16C56.6066 17.8069 55.1402 19.2733 53.3333 19.2733Z" fill="#F1B202"/>
<path d="M28.7005 31.9738C26.8936 31.9738 25.4272 30.5074 25.4272 28.7005V16C25.4272 10.7889 21.1849 6.54664 16 6.54664C10.8151 6.54664 6.54664 10.7889 6.54664 16V28.7267C6.54664 30.5336 5.0802 32 3.27332 32C1.46645 32 0 30.5336 0 28.7267V16C0 7.17512 7.17512 0 16 0C24.8249 0 32 7.17512 32 16V28.7267C31.9738 30.5074 30.5074 31.9738 28.7005 31.9738Z" fill="white"/>
<path d="M15.9999 19.2734C15.8952 19.2734 15.7905 19.2734 15.6857 19.2472C15.581 19.2472 15.4762 19.221 15.3715 19.1948C15.162 19.1424 14.9525 19.0901 14.7692 19.0115C14.5597 18.9329 14.3764 18.8282 14.2193 18.6973C14.1407 18.6449 14.0359 18.5663 13.9574 18.514C13.8788 18.4616 13.8003 18.383 13.7217 18.3045C13.6431 18.2259 13.5646 18.1473 13.5122 18.0688C13.4337 17.9902 13.3813 17.9117 13.3289 17.8069C13.198 17.6236 13.1194 17.4403 13.0409 17.2308C12.9623 17.0213 12.8837 16.838 12.8576 16.6285C12.8314 16.5238 12.8314 16.419 12.8052 16.3143C12.8052 16.2095 12.779 16.1048 12.779 16C12.779 15.8953 12.779 15.7906 12.8052 15.6858C12.8052 15.5811 12.8314 15.4763 12.8576 15.3716C12.9099 15.1621 12.9623 14.9526 13.0409 14.7693C13.1194 14.5598 13.2242 14.3765 13.3289 14.1932C13.3813 14.1146 13.4598 14.0099 13.5122 13.9313C13.5908 13.8528 13.6431 13.7742 13.7217 13.6956C13.8003 13.6171 13.8788 13.5385 13.9574 13.4861C14.0359 13.4076 14.1407 13.3552 14.2193 13.3028C14.4026 13.1719 14.5859 13.0933 14.7692 13.0148C14.9787 12.9362 15.162 12.8577 15.3715 12.8315C15.4762 12.8053 15.581 12.7791 15.6857 12.7791C15.8952 12.7529 16.1047 12.7529 16.3404 12.7791C16.4451 12.7791 16.5499 12.8053 16.6546 12.8315C16.8641 12.8838 17.0736 12.9362 17.2569 13.0148C17.4664 13.0933 17.6497 13.1981 17.833 13.3028C17.9116 13.3552 18.0163 13.4338 18.0949 13.4861C18.1734 13.5647 18.252 13.6171 18.3305 13.6956C18.4091 13.7742 18.4877 13.8528 18.54 13.9313C18.6186 14.0099 18.671 14.0884 18.7233 14.1932C18.8281 14.3765 18.9328 14.5598 19.0114 14.7693C19.09 14.9788 19.1423 15.1621 19.1947 15.3716C19.2209 15.4763 19.2209 15.5811 19.2471 15.6858C19.2471 15.7906 19.2733 15.8953 19.2733 16C19.2733 16.1048 19.2733 16.2095 19.2471 16.3143C19.2471 16.419 19.2209 16.5238 19.1947 16.6285C19.1423 16.838 19.09 17.0475 19.0114 17.2308C18.9328 17.4403 18.8281 17.6236 18.7233 17.8069C18.671 17.8855 18.5924 17.9902 18.54 18.0688C18.4615 18.1473 18.4091 18.2259 18.3305 18.3045C18.252 18.383 18.1734 18.4616 18.0949 18.514C18.0163 18.5925 17.9378 18.6449 17.833 18.6973C17.6497 18.8282 17.4664 18.9068 17.2569 19.0115C17.0474 19.0901 16.8641 19.1424 16.6546 19.1948C16.5499 19.221 16.4451 19.221 16.3404 19.2472C16.2094 19.2472 16.1047 19.2734 15.9999 19.2734Z" fill="#F1004F"/>
<path d="M0.08 43L2.32 37.4H3.28L5.52 43H4.6L4.04 41.56H1.56L1 43H0.08ZM1.88 40.76H3.72L2.8 38.44L1.88 40.76ZM7.84156 43V37.4H8.72156V42.16H11.4416V43H7.84156ZM13.8441 43V37.4H14.7241V42.16H17.4441V43H13.8441ZM27.0438 43L25.2038 37.4H26.1238L27.4838 41.6L28.8038 37.4H29.6838L31.0038 41.6L32.3638 37.4H33.2838L31.4438 43H30.5638L29.2438 38.8L27.9238 43H27.0438ZM36.6459 38.728C36.2459 39.128 36.0459 39.6187 36.0459 40.2C36.0459 40.7813 36.2459 41.2747 36.6459 41.68C37.0513 42.08 37.5446 42.28 38.1259 42.28C38.7073 42.28 39.1979 42.08 39.5979 41.68C40.0033 41.2747 40.2059 40.7813 40.2059 40.2C40.2059 39.6187 40.0033 39.128 39.5979 38.728C39.1979 38.3227 38.7073 38.12 38.1259 38.12C37.5446 38.12 37.0513 38.3227 36.6459 38.728ZM36.0139 42.248C35.4486 41.688 35.1659 41.0053 35.1659 40.2C35.1659 39.3947 35.4486 38.7147 36.0139 38.16C36.5846 37.6 37.2886 37.32 38.1259 37.32C38.9633 37.32 39.6646 37.6 40.2299 38.16C40.8006 38.7147 41.0859 39.3947 41.0859 40.2C41.0859 41.0053 40.8006 41.688 40.2299 42.248C39.6646 42.8027 38.9633 43.08 38.1259 43.08C37.2886 43.08 36.5846 42.8027 36.0139 42.248ZM43.7628 43V37.4H46.0828C46.6161 37.4 47.0561 37.568 47.4028 37.904C47.7495 38.24 47.9228 38.6587 47.9228 39.16C47.9228 39.6667 47.7441 40.088 47.3868 40.424C47.2268 40.568 47.0481 40.68 46.8508 40.76L48.1228 43H47.1228L45.9628 40.92H44.6428V43H43.7628ZM44.6428 40.12H46.0828C46.3655 40.12 46.5948 40.032 46.7708 39.856C46.9521 39.6747 47.0428 39.4427 47.0428 39.16C47.0428 38.8773 46.9521 38.648 46.7708 38.472C46.5948 38.2907 46.3655 38.2 46.0828 38.2H44.6428V40.12ZM50.7263 43V37.4H51.6063V40.12L54.1263 37.4H55.2463L53.0863 39.72L55.4063 43H54.3263L52.4863 40.36L51.6063 41.32V43H50.7263ZM63.64 43V37.4H67.6V38.24H64.52V39.68H66.96V40.52H64.52V42.16H67.68V43H63.64ZM69.5631 43L71.5631 40.08L69.7231 37.4H70.7631L72.1231 39.44L73.4831 37.4H74.5231L72.6831 40.08L74.6831 43H73.6431L72.1231 40.72L70.6031 43H69.5631ZM77.0044 43V37.4H79.2444C79.783 37.4 80.231 37.5733 80.5884 37.92C80.9457 38.2667 81.1244 38.6933 81.1244 39.2C81.1244 39.7067 80.9457 40.1333 80.5884 40.48C80.231 40.8267 79.783 41 79.2444 41H77.8844V43H77.0044ZM77.8844 40.2H79.2444C79.5217 40.2 79.7564 40.104 79.9484 39.912C80.1457 39.72 80.2444 39.4827 80.2444 39.2C80.2444 38.9173 80.1457 38.68 79.9484 38.488C79.7564 38.296 79.5217 38.2 79.2444 38.2H77.8844V40.2ZM83.7256 43V37.4H86.0456C86.579 37.4 87.019 37.568 87.3656 37.904C87.7123 38.24 87.8856 38.6587 87.8856 39.16C87.8856 39.6667 87.707 40.088 87.3496 40.424C87.1896 40.568 87.011 40.68 86.8136 40.76L88.0856 43H87.0856L85.9256 40.92H84.6056V43H83.7256ZM84.6056 40.12H86.0456C86.3283 40.12 86.5576 40.032 86.7336 39.856C86.915 39.6747 87.0056 39.4427 87.0056 39.16C87.0056 38.8773 86.915 38.648 86.7336 38.472C86.5576 38.2907 86.3283 38.2 86.0456 38.2H84.6056V40.12ZM90.6891 43V37.4H94.6491V38.24H91.5691V39.68H94.0091V40.52H91.5691V42.16H94.7291V43H90.6891ZM96.7722 42.24L97.3722 41.64C97.4575 41.752 97.5695 41.8587 97.7082 41.96C98.0175 42.1733 98.3722 42.28 98.7722 42.28C99.1189 42.28 99.3909 42.2 99.5882 42.04C99.7909 41.8747 99.8922 41.6747 99.8922 41.44C99.8922 41.248 99.8175 41.0907 99.6682 40.968C99.5242 40.84 99.3429 40.7467 99.1242 40.688C98.9055 40.6293 98.6682 40.5573 98.4122 40.472C98.1562 40.3867 97.9189 40.2933 97.7002 40.192C97.4815 40.0907 97.2975 39.928 97.1482 39.704C97.0042 39.48 96.9322 39.2053 96.9322 38.88C96.9322 38.4427 97.1082 38.0747 97.4602 37.776C97.8122 37.472 98.2762 37.32 98.8522 37.32C99.3429 37.32 99.7802 37.44 100.164 37.68C100.346 37.7867 100.495 37.9067 100.612 38.04L100.012 38.64C99.9162 38.5333 99.8175 38.448 99.7162 38.384C99.4495 38.208 99.1615 38.12 98.8522 38.12C98.5269 38.12 98.2709 38.1947 98.0842 38.344C97.9029 38.488 97.8122 38.6667 97.8122 38.88C97.8122 39.072 97.8842 39.232 98.0282 39.36C98.1775 39.4827 98.3615 39.5733 98.5802 39.632C98.7989 39.6907 99.0362 39.7627 99.2922 39.848C99.5482 39.9333 99.7855 40.0267 100.004 40.128C100.223 40.2293 100.404 40.392 100.548 40.616C100.698 40.84 100.772 41.1147 100.772 41.44C100.772 41.8987 100.588 42.288 100.22 42.608C99.8575 42.9227 99.3749 43.08 98.7722 43.08C98.1855 43.08 97.6815 42.9413 97.2602 42.664C97.0789 42.552 96.9162 42.4107 96.7722 42.24ZM102.775 42.24L103.375 41.64C103.46 41.752 103.572 41.8587 103.711 41.96C104.02 42.1733 104.375 42.28 104.775 42.28C105.121 42.28 105.393 42.2 105.591 42.04C105.793 41.8747 105.895 41.6747 105.895 41.44C105.895 41.248 105.82 41.0907 105.671 40.968C105.527 40.84 105.345 40.7467 105.127 40.688C104.908 40.6293 104.671 40.5573 104.415 40.472C104.159 40.3867 103.921 40.2933 103.703 40.192C103.484 40.0907 103.3 39.928 103.151 39.704C103.007 39.48 102.935 39.2053 102.935 38.88C102.935 38.4427 103.111 38.0747 103.463 37.776C103.815 37.472 104.279 37.32 104.855 37.32C105.345 37.32 105.783 37.44 106.167 37.68C106.348 37.7867 106.497 37.9067 106.615 38.04L106.015 38.64C105.919 38.5333 105.82 38.448 105.719 38.384C105.452 38.208 105.164 38.12 104.855 38.12C104.529 38.12 104.273 38.1947 104.087 38.344C103.905 38.488 103.815 38.6667 103.815 38.88C103.815 39.072 103.887 39.232 104.031 39.36C104.18 39.4827 104.364 39.5733 104.583 39.632C104.801 39.6907 105.039 39.7627 105.295 39.848C105.551 39.9333 105.788 40.0267 106.007 40.128C106.225 40.2293 106.407 40.392 106.551 40.616C106.7 40.84 106.775 41.1147 106.775 41.44C106.775 41.8987 106.591 42.288 106.223 42.608C105.86 42.9227 105.377 43.08 104.775 43.08C104.188 43.08 103.684 42.9413 103.263 42.664C103.081 42.552 102.919 42.4107 102.775 42.24Z" fill="#626262"/>
</svg>
