<svg width="176" height="64" viewBox="0 0 176 64" fill="none" xmlns="http://www.w3.org/2000/svg">
<g filter="url(#filter0_d_28_346)">
<path d="M162.074 0H13.9259C10.6531 0 8 2.68629 8 6V42C8 45.3137 10.6531 48 13.9259 48H162.074C165.347 48 168 45.3137 168 42V6C168 2.68629 165.347 0 162.074 0Z" fill="black"/>
<path d="M162.074 0.96C163.394 0.96 164.66 1.491 165.594 2.43618C166.527 3.38137 167.052 4.66331 167.052 6V42C167.052 43.3367 166.527 44.6186 165.594 45.5638C164.66 46.509 163.394 47.04 162.074 47.04H13.9259C12.6057 47.04 11.3396 46.509 10.4061 45.5638C9.47259 44.6186 8.94815 43.3367 8.94815 42V6C8.94815 4.66331 9.47259 3.38137 10.4061 2.43618C11.3396 1.491 12.6057 0.96 13.9259 0.96H162.074ZM162.074 0H13.9259C12.3543 0 10.847 0.632141 9.73566 1.75736C8.62434 2.88258 8 4.4087 8 6V42C8 43.5913 8.62434 45.1174 9.73566 46.2426C10.847 47.3679 12.3543 48 13.9259 48H162.074C163.646 48 165.153 47.3679 166.264 46.2426C167.376 45.1174 168 43.5913 168 42V6C168 4.4087 167.376 2.88258 166.264 1.75736C165.153 0.632141 163.646 0 162.074 0Z" fill="#262626"/>
<path d="M46.0597 23.1756C46.0269 19.4905 49.0398 17.6977 49.1776 17.6143C47.4713 15.0954 44.8266 14.7513 43.8972 14.7238C41.6759 14.4872 39.5213 16.0696 38.3898 16.0696C37.2357 16.0696 35.4933 14.7467 33.6153 14.7856C31.1987 14.8233 28.938 16.2399 27.6981 18.4398C25.1392 22.9252 27.0476 29.5167 29.4992 33.1423C30.7256 34.918 32.1586 36.9006 34.0343 36.8309C35.8693 36.7542 36.5548 35.6463 38.7692 35.6463C40.9634 35.6463 41.6071 36.8309 43.52 36.7863C45.4894 36.7542 46.7293 35.0026 47.9128 33.2109C49.33 31.1758 49.8992 29.1714 49.9217 29.0685C49.8754 29.0525 46.097 27.5924 46.0597 23.1756Z" fill="white"/>
<path d="M42.4461 12.3387C43.4331 11.089 44.1084 9.38879 43.9209 7.66345C42.4924 7.72748 40.7059 8.6639 39.6772 9.88616C38.767 10.9632 37.9539 12.7286 38.164 14.3887C39.7686 14.5099 41.4162 13.5689 42.4461 12.3387Z" fill="white"/>
<path d="M72.616 36.5757H70.0515L68.6467 32.1063H63.7638L62.4257 36.5757H59.9289L64.7666 21.3597H67.7546L72.616 36.5757ZM68.2232 30.2311L66.9528 26.2579C66.8185 25.852 66.5666 24.8962 66.1951 23.3915H66.1499C66.002 24.0387 65.7637 24.9945 65.4363 26.2579L64.1884 30.2311H68.2232Z" fill="white"/>
<path d="M85.0567 30.9549C85.0567 32.8208 84.5587 34.2958 83.5627 35.3786C82.6706 36.3424 81.5628 36.8238 80.2405 36.8238C78.8131 36.8238 77.7877 36.3047 77.1633 35.2665H77.1181V41.0462H74.7105V29.2158C74.7105 28.0427 74.68 26.8387 74.6213 25.6039H76.7387L76.873 27.343H76.9182C77.7211 26.0327 78.9396 25.3787 80.5747 25.3787C81.853 25.3787 82.9202 25.8897 83.7739 26.9131C84.6299 27.9375 85.0567 29.2844 85.0567 30.9549ZM82.604 31.044C82.604 29.9761 82.3668 29.0958 81.8903 28.4029C81.3697 27.6803 80.6707 27.319 79.7944 27.319C79.2004 27.319 78.6606 27.5202 78.1784 27.9169C77.6951 28.3171 77.3789 28.8396 77.231 29.4868C77.1565 29.7886 77.1192 30.0356 77.1192 30.23V32.0594C77.1192 32.8574 77.3609 33.5309 77.8442 34.0808C78.3275 34.6308 78.9554 34.9052 79.7278 34.9052C80.6346 34.9052 81.3404 34.5508 81.8451 33.8442C82.351 33.1364 82.604 32.2034 82.604 31.044Z" fill="white"/>
<path d="M97.5205 30.9549C97.5205 32.8208 97.0225 34.2958 96.0254 35.3786C95.1344 36.3424 94.0266 36.8238 92.7043 36.8238C91.2769 36.8238 90.2515 36.3047 89.6282 35.2665H89.583V41.0462H87.1755V29.2158C87.1755 28.0427 87.145 26.8387 87.0862 25.6039H89.2036L89.338 27.343H89.3831C90.1849 26.0327 91.4034 25.3787 93.0397 25.3787C94.3169 25.3787 95.384 25.8897 96.24 26.9131C97.0926 27.9375 97.5205 29.2844 97.5205 30.9549ZM95.0678 31.044C95.0678 29.9761 94.8295 29.0958 94.353 28.4029C93.8324 27.6803 93.1357 27.319 92.2582 27.319C91.6631 27.319 91.1245 27.5202 90.6411 27.9169C90.1578 28.3171 89.8427 28.8396 89.6948 29.4868C89.6214 29.7886 89.583 30.0356 89.583 30.23V32.0594C89.583 32.8574 89.8247 33.5309 90.3057 34.0808C90.7891 34.6296 91.4169 34.9052 92.1916 34.9052C93.0984 34.9052 93.8042 34.5508 94.309 33.8442C94.8149 33.1364 95.0678 32.2034 95.0678 31.044Z" fill="white"/>
<path d="M111.456 32.3087C111.456 33.603 111.012 34.656 110.121 35.469C109.142 36.3574 107.779 36.801 106.027 36.801C104.41 36.801 103.114 36.4854 102.133 35.8531L102.69 33.8214C103.747 34.4685 104.907 34.7932 106.171 34.7932C107.077 34.7932 107.783 34.5851 108.29 34.1712C108.795 33.7573 109.047 33.2017 109.047 32.5088C109.047 31.8914 108.839 31.3711 108.422 30.9492C108.008 30.5273 107.316 30.1351 106.349 29.7727C103.718 28.7791 102.404 27.3236 102.404 25.4096C102.404 24.1588 102.864 23.1332 103.787 22.3351C104.706 21.5359 105.932 21.1368 107.466 21.1368C108.833 21.1368 109.97 21.3781 110.876 21.8594L110.274 23.8466C109.427 23.3801 108.47 23.1469 107.398 23.1469C106.551 23.1469 105.89 23.3584 105.415 23.7792C105.014 24.1553 104.813 24.6138 104.813 25.1569C104.813 25.7583 105.043 26.2557 105.503 26.6467C105.904 27.008 106.633 27.3991 107.69 27.821C108.983 28.3481 109.932 28.9643 110.543 29.6709C111.152 30.3753 111.456 31.2568 111.456 32.3087Z" fill="white"/>
<path d="M119.416 27.4333H116.762V32.7602C116.762 34.1151 117.229 34.792 118.167 34.792C118.597 34.792 118.954 34.7543 119.236 34.6788L119.303 36.5299C118.828 36.7094 118.204 36.7998 117.43 36.7998C116.479 36.7998 115.736 36.5059 115.2 35.9194C114.666 35.3317 114.397 34.3461 114.397 32.9615V27.431H112.816V25.6016H114.397V23.5927L116.762 22.8701V25.6016H119.416V27.4333Z" fill="white"/>
<path d="M131.389 30.9997C131.389 32.6861 130.913 34.0707 129.962 35.1535C128.965 36.2683 127.641 36.824 125.991 36.824C124.401 36.824 123.135 36.29 122.191 35.2221C121.247 34.1542 120.775 32.8062 120.775 31.1815C120.775 29.4813 121.261 28.0886 122.235 27.0059C123.208 25.922 124.52 25.38 126.17 25.38C127.76 25.38 129.039 25.914 130.005 26.983C130.928 28.02 131.389 29.3589 131.389 30.9997ZM128.891 31.0785C128.891 30.0667 128.678 29.1989 128.245 28.4751C127.74 27.5993 127.019 27.1625 126.084 27.1625C125.116 27.1625 124.381 27.6004 123.876 28.4751C123.444 29.2 123.23 30.0815 123.23 31.1243C123.23 32.1362 123.444 33.004 123.876 33.7266C124.397 34.6024 125.124 35.0392 126.062 35.0392C126.982 35.0392 127.703 34.5933 128.224 33.7037C128.668 32.9662 128.891 32.0893 128.891 31.0785Z" fill="white"/>
<path d="M139.215 27.7477C138.976 27.7031 138.722 27.6803 138.456 27.6803C137.609 27.6803 136.954 28.0038 136.493 28.6521C136.092 29.2238 135.891 29.9464 135.891 30.8188V36.5757H133.485L133.507 29.0592C133.507 27.7946 133.477 26.6432 133.417 25.605H135.514L135.602 27.7043H135.669C135.923 26.9828 136.324 26.402 136.873 25.9664C137.409 25.5742 137.988 25.3787 138.613 25.3787C138.835 25.3787 139.036 25.3947 139.215 25.4233V27.7477Z" fill="white"/>
<path d="M149.982 30.5708C149.982 31.0075 149.954 31.3757 149.894 31.6764H142.671C142.699 32.7603 143.048 33.5893 143.719 34.1609C144.328 34.672 145.115 34.9281 146.082 34.9281C147.151 34.9281 148.127 34.7555 149.004 34.4091L149.381 36.1012C148.356 36.554 147.145 36.7793 145.748 36.7793C144.068 36.7793 142.749 36.2785 141.789 35.278C140.832 34.2776 140.352 32.9341 140.352 31.2488C140.352 29.5943 140.798 28.2166 141.691 27.1178C142.626 25.9447 143.89 25.3582 145.48 25.3582C147.041 25.3582 148.224 25.9447 149.027 27.1178C149.662 28.0496 149.982 29.2022 149.982 30.5708ZM147.686 29.9385C147.702 29.2159 147.545 28.5916 147.219 28.0645C146.802 27.3865 146.162 27.0481 145.3 27.0481C144.513 27.0481 143.873 27.3785 143.384 28.0416C142.983 28.5687 142.745 29.201 142.671 29.9373H147.686V29.9385Z" fill="white"/>
<path d="M67.4275 11.9992C67.4275 13.3449 67.0289 14.3579 66.2327 15.0382C65.4953 15.6659 64.4474 15.9804 63.09 15.9804C62.417 15.9804 61.8411 15.9506 61.3589 15.8912V8.53819C61.9879 8.43528 62.6654 8.38269 63.3972 8.38269C64.6902 8.38269 65.6647 8.66739 66.322 9.23679C67.0582 9.8805 67.4275 10.8009 67.4275 11.9992ZM66.1797 12.0323C66.1797 11.1599 65.9516 10.4911 65.4953 10.0246C65.0391 9.55921 64.3729 9.32597 63.4954 9.32597C63.1228 9.32597 62.8055 9.35112 62.5423 9.40372V14.9936C62.688 15.0165 62.9545 15.0268 63.3419 15.0268C64.2475 15.0268 64.9465 14.7718 65.4389 14.2619C65.9312 13.7519 66.1797 13.0088 66.1797 12.0323Z" fill="white"/>
<path d="M74.0438 13.1745C74.0438 14.0035 73.8101 14.6826 73.3426 15.2154C72.8525 15.7631 72.2032 16.0364 71.3923 16.0364C70.6109 16.0364 69.9887 15.7745 69.5246 15.2486C69.0616 14.7238 68.8301 14.0618 68.8301 13.2637C68.8301 12.429 69.0683 11.7442 69.5472 11.2125C70.026 10.6808 70.6696 10.4144 71.4804 10.4144C72.2619 10.4144 72.8897 10.6763 73.3651 11.2011C73.8168 11.711 74.0438 12.3696 74.0438 13.1745ZM72.8163 13.2134C72.8163 12.716 72.7102 12.2896 72.499 11.934C72.2506 11.5041 71.8971 11.2891 71.4375 11.2891C70.9621 11.2891 70.6007 11.5041 70.3523 11.934C70.14 12.2896 70.035 12.7229 70.035 13.2351C70.035 13.7325 70.1411 14.159 70.3523 14.5145C70.6086 14.9444 70.9655 15.1594 71.4262 15.1594C71.8779 15.1594 72.2325 14.941 72.4877 14.5031C72.7068 14.1407 72.8163 13.7108 72.8163 13.2134Z" fill="white"/>
<path d="M82.9153 10.524L81.2497 15.9139H80.1656L79.4756 13.5734C79.3006 12.9891 79.1583 12.4083 79.0476 11.8321H79.0262C78.9234 12.4243 78.7811 13.004 78.5982 13.5734L77.8653 15.9139H76.7688L75.2025 10.524H76.4187L77.0206 13.0863C77.1663 13.6923 77.286 14.2697 77.382 14.8163H77.4034C77.4915 14.3658 77.6372 13.7918 77.8427 13.0978L78.5982 10.5252H79.5626L80.2864 13.0429C80.4614 13.6569 80.6037 14.248 80.7133 14.8174H80.746C80.8262 14.2629 80.947 13.6717 81.1074 13.0429L81.7533 10.5252H82.9153V10.524Z" fill="white"/>
<path d="M89.0504 15.9139H87.8669V12.8268C87.8669 11.8755 87.5101 11.3999 86.7941 11.3999C86.4429 11.3999 86.1595 11.5302 85.9393 11.7921C85.7213 12.0539 85.6107 12.3626 85.6107 12.7159V15.9128H84.4272V12.0642C84.4272 11.5908 84.4125 11.0775 84.3843 10.5218H85.4243L85.4797 11.3645H85.5124C85.6502 11.1026 85.8557 10.8865 86.1256 10.7139C86.4463 10.5126 86.8054 10.4109 87.1984 10.4109C87.6953 10.4109 88.1086 10.5732 88.4372 10.8991C88.846 11.2981 89.0504 11.8938 89.0504 12.685V15.9139Z" fill="white"/>
<path d="M92.3138 15.914H91.1315V8.05103H92.3138V15.914Z" fill="white"/>
<path d="M99.2815 13.1745C99.2815 14.0035 99.0478 14.6826 98.5803 15.2154C98.0902 15.7631 97.4397 16.0364 96.63 16.0364C95.8475 16.0364 95.2252 15.7745 94.7622 15.2486C94.2992 14.7238 94.0677 14.0618 94.0677 13.2637C94.0677 12.429 94.306 11.7442 94.7848 11.2125C95.2636 10.6808 95.9073 10.4144 96.717 10.4144C97.4996 10.4144 98.1263 10.6763 98.6028 11.2011C99.0545 11.711 99.2815 12.3696 99.2815 13.1745ZM98.0529 13.2134C98.0529 12.716 97.9467 12.2896 97.7356 11.934C97.4883 11.5041 97.1337 11.2891 96.6752 11.2891C96.1987 11.2891 95.8373 11.5041 95.59 11.934C95.3777 12.2896 95.2727 12.7229 95.2727 13.2351C95.2727 13.7325 95.3788 14.159 95.59 14.5145C95.8463 14.9444 96.2032 15.1594 96.6639 15.1594C97.1156 15.1594 97.4691 14.941 97.7243 14.5031C97.9445 14.1407 98.0529 13.7108 98.0529 13.2134Z" fill="white"/>
<path d="M105.009 15.914H103.946L103.858 15.2932H103.825C103.462 15.7883 102.944 16.0364 102.27 16.0364C101.768 16.0364 101.361 15.8729 101.055 15.5481C100.778 15.2532 100.639 14.8861 100.639 14.4505C100.639 13.7919 100.91 13.29 101.455 12.9424C101.999 12.5948 102.765 12.4245 103.751 12.4325V12.3319C103.751 11.6218 103.383 11.2674 102.645 11.2674C102.12 11.2674 101.657 11.4012 101.258 11.6664L101.017 10.8798C101.512 10.5699 102.123 10.4144 102.843 10.4144C104.234 10.4144 104.932 11.1576 104.932 12.644V14.6289C104.932 15.1674 104.958 15.5962 105.009 15.914ZM103.78 14.0618V13.2305C102.475 13.2077 101.822 13.5701 101.822 14.3167C101.822 14.598 101.897 14.8084 102.049 14.949C102.202 15.0897 102.396 15.1594 102.627 15.1594C102.887 15.1594 103.13 15.0759 103.351 14.9101C103.574 14.7432 103.71 14.5317 103.761 14.2721C103.774 14.2138 103.78 14.1429 103.78 14.0618Z" fill="white"/>
<path d="M111.733 15.914H110.683L110.628 15.0484H110.595C110.26 15.707 109.688 16.0363 108.885 16.0363C108.244 16.0363 107.71 15.7813 107.286 15.2714C106.863 14.7614 106.652 14.0994 106.652 13.2865C106.652 12.4141 106.881 11.7075 107.342 11.1678C107.788 10.6648 108.334 10.4132 108.985 10.4132C109.7 10.4132 110.2 10.6568 110.484 11.145H110.507V8.05103H111.692V14.4619C111.692 14.9867 111.705 15.4703 111.733 15.914ZM110.507 13.6409V12.7423C110.507 12.5868 110.496 12.461 110.474 12.365C110.408 12.0768 110.264 11.8344 110.046 11.6389C109.826 11.4434 109.561 11.3451 109.255 11.3451C108.813 11.3451 108.468 11.5223 108.213 11.8779C107.962 12.2335 107.834 12.6874 107.834 13.2419C107.834 13.7747 107.955 14.2069 108.198 14.5396C108.454 14.8941 108.8 15.0713 109.232 15.0713C109.621 15.0713 109.931 14.9238 110.167 14.6277C110.395 14.3544 110.507 14.0251 110.507 13.6409Z" fill="white"/>
<path d="M121.855 13.1745C121.855 14.0035 121.621 14.6826 121.154 15.2154C120.664 15.7631 120.016 16.0364 119.204 16.0364C118.423 16.0364 117.801 15.7745 117.336 15.2486C116.873 14.7238 116.641 14.0618 116.641 13.2637C116.641 12.429 116.88 11.7442 117.358 11.2125C117.837 10.6808 118.481 10.4144 119.293 10.4144C120.073 10.4144 120.702 10.6763 121.177 11.2011C121.628 11.711 121.855 12.3696 121.855 13.1745ZM120.629 13.2134C120.629 12.716 120.523 12.2896 120.311 11.934C120.062 11.5041 119.71 11.2891 119.249 11.2891C118.775 11.2891 118.413 11.5041 118.164 11.934C117.951 12.2896 117.846 12.7229 117.846 13.2351C117.846 13.7325 117.952 14.159 118.164 14.5145C118.42 14.9444 118.777 15.1594 119.238 15.1594C119.689 15.1594 120.045 14.941 120.3 14.5031C120.518 14.1407 120.629 13.7108 120.629 13.2134Z" fill="white"/>
<path d="M128.218 15.9139H127.036V12.8268C127.036 11.8755 126.679 11.3999 125.962 11.3999C125.611 11.3999 125.327 11.5302 125.108 11.7921C124.889 12.0539 124.78 12.3626 124.78 12.7159V15.9128H123.595V12.0642C123.595 11.5908 123.582 11.0775 123.553 10.5218H124.592L124.648 11.3645H124.68C124.819 11.1026 125.025 10.8865 125.294 10.7139C125.615 10.5126 125.973 10.4109 126.367 10.4109C126.863 10.4109 127.276 10.5732 127.605 10.8991C128.015 11.2981 128.218 11.8938 128.218 12.685V15.9139Z" fill="white"/>
<path d="M136.183 11.4216H134.88V14.0399C134.88 14.7054 135.111 15.0381 135.57 15.0381C135.782 15.0381 135.958 15.0198 136.097 14.9821L136.128 15.891C135.894 15.9802 135.587 16.0248 135.208 16.0248C134.741 16.0248 134.377 15.8808 134.114 15.5926C133.85 15.3045 133.719 14.8197 133.719 14.1394V11.4216H132.941V10.5241H133.719V9.53621L134.879 9.18176V10.5229H136.182V11.4216H136.183Z" fill="white"/>
<path d="M142.448 15.914H141.264V12.8497C141.264 11.8836 140.907 11.3999 140.192 11.3999C139.643 11.3999 139.268 11.6801 139.063 12.2403C139.028 12.3581 139.007 12.5022 139.007 12.6714V15.9128H137.825V8.05103H139.007V11.2993H139.03C139.403 10.7082 139.937 10.4132 140.629 10.4132C141.119 10.4132 141.525 10.5756 141.846 10.9014C142.247 11.3073 142.448 11.911 142.448 12.7091V15.914Z" fill="white"/>
<path d="M148.911 12.9641C148.911 13.179 148.895 13.3597 148.867 13.5072H145.318C145.334 14.04 145.503 14.4459 145.832 14.7271C146.132 14.9787 146.519 15.1044 146.994 15.1044C147.519 15.1044 147.997 15.0198 148.429 14.8495L148.614 15.6818C148.109 15.9036 147.515 16.0146 146.828 16.0146C146.003 16.0146 145.354 15.7687 144.884 15.2771C144.412 14.7854 144.178 14.1257 144.178 13.2979C144.178 12.485 144.396 11.8081 144.836 11.2684C145.294 10.6922 145.914 10.4041 146.697 10.4041C147.462 10.4041 148.044 10.6922 148.437 11.2684C148.754 11.7258 148.911 12.2918 148.911 12.9641ZM147.782 12.6542C147.791 12.2986 147.713 11.9922 147.553 11.7338C147.347 11.4011 147.034 11.2341 146.611 11.2341C146.225 11.2341 145.909 11.3965 145.669 11.7224C145.472 11.9819 145.356 12.2918 145.318 12.6542H147.782Z" fill="white"/>
</g>
<defs>
<filter id="filter0_d_28_346" x="0" y="0" width="176" height="64" filterUnits="userSpaceOnUse" color-interpolation-filters="sRGB">
<feFlood flood-opacity="0" result="BackgroundImageFix"/>
<feColorMatrix in="SourceAlpha" type="matrix" values="0 0 0 0 0 0 0 0 0 0 0 0 0 0 0 0 0 0 127 0" result="hardAlpha"/>
<feOffset dy="8"/>
<feGaussianBlur stdDeviation="4"/>
<feColorMatrix type="matrix" values="0 0 0 0 0 0 0 0 0 0 0 0 0 0 0 0 0 0 0.15 0"/>
<feBlend mode="normal" in2="BackgroundImageFix" result="effect1_dropShadow_28_346"/>
<feBlend mode="normal" in="SourceGraphic" in2="effect1_dropShadow_28_346" result="shape"/>
</filter>
</defs>
</svg>
