<svg width="65" height="65" viewBox="0 0 65 65" fill="none" xmlns="http://www.w3.org/2000/svg">
<circle cx="32.5" cy="32.5" r="32" stroke="#222222"/>
<path fill-rule="evenodd" clip-rule="evenodd" d="M35.7071 22.2929C35.5196 22.1054 35.2652 22 35 22H27C25.3431 22 24 23.3431 24 25V41C24 42.6569 25.3431 44 27 44H39C40.6569 44 42 42.6569 42 41V29C42 28.7348 41.8946 28.4804 41.7071 28.2929L35.7071 22.2929ZM27 24H34.5858L40 29.4142V41C40 41.5523 39.5523 42 39 42H27C26.4477 42 26 41.5523 26 41V25C26 24.4477 26.4477 24 27 24Z" fill="#F1B202"/>
<path d="M36 23C36 22.4477 35.5523 22 35 22C34.4477 22 34 22.4477 34 23V29C34 29.5523 34.4477 30 35 30H41C41.5523 30 42 29.5523 42 29C42 28.4477 41.5523 28 41 28H36V23Z" fill="#F1B202"/>
<path d="M37 33H29C28.4477 33 28 33.4477 28 34C28 34.5523 28.4477 35 29 35H37C37.5523 35 38 34.5523 38 34C38 33.4477 37.5523 33 37 33Z" fill="#F1B202"/>
<path d="M37 37H29C28.4477 37 28 37.4477 28 38C28 38.5523 28.4477 39 29 39H37C37.5523 39 38 38.5523 38 38C38 37.4477 37.5523 37 37 37Z" fill="#F1B202"/>
<path d="M31 29H29C28.4477 29 28 29.4477 28 30C28 30.5523 28.4477 31 29 31H31C31.5523 31 32 30.5523 32 30C32 29.4477 31.5523 29 31 29Z" fill="#F1B202"/>
</svg>
