<svg width="65" height="65" viewBox="0 0 65 65" fill="none" xmlns="http://www.w3.org/2000/svg">
<circle cx="32.5" cy="32.5" r="32" stroke="#222222"/>
<path fill-rule="evenodd" clip-rule="evenodd" d="M39 40V33C39 32.4477 39.4477 32 40 32C40.5523 32 41 32.4477 41 33V40C41 41.6569 39.6569 43 38 43H24C22.3431 43 21 41.6569 21 40V26C21 24.3431 22.3431 23 24 23H35C35.5523 23 36 23.4477 36 24C36 24.5523 35.5523 25 35 25H24C23.4477 25 23 25.4477 23 26V40C23 40.5523 23.4477 41 24 41H38C38.5523 41 39 40.5523 39 40ZM28.7071 31.2929L31 33.5858L41.2929 23.2929C41.6834 22.9024 42.3166 22.9024 42.7071 23.2929C43.0976 23.6834 43.0976 24.3166 42.7071 24.7071L31.7071 35.7071C31.3166 36.0976 30.6834 36.0976 30.2929 35.7071L27.2929 32.7071C26.9024 32.3166 26.9024 31.6834 27.2929 31.2929C27.6834 30.9024 28.3166 30.9024 28.7071 31.2929Z" fill="#F1B202"/>
<mask id="mask0_28_63" style="mask-type:alpha" maskUnits="userSpaceOnUse" x="21" y="23" width="22" height="20">
<path fill-rule="evenodd" clip-rule="evenodd" d="M39 40V33C39 32.4477 39.4477 32 40 32C40.5523 32 41 32.4477 41 33V40C41 41.6569 39.6569 43 38 43H24C22.3431 43 21 41.6569 21 40V26C21 24.3431 22.3431 23 24 23H35C35.5523 23 36 23.4477 36 24C36 24.5523 35.5523 25 35 25H24C23.4477 25 23 25.4477 23 26V40C23 40.5523 23.4477 41 24 41H38C38.5523 41 39 40.5523 39 40ZM28.7071 31.2929L31 33.5858L41.2929 23.2929C41.6834 22.9024 42.3166 22.9024 42.7071 23.2929C43.0976 23.6834 43.0976 24.3166 42.7071 24.7071L31.7071 35.7071C31.3166 36.0976 30.6834 36.0976 30.2929 35.7071L27.2929 32.7071C26.9024 32.3166 26.9024 31.6834 27.2929 31.2929C27.6834 30.9024 28.3166 30.9024 28.7071 31.2929Z" fill="white"/>
</mask>
<g mask="url(#mask0_28_63)">
<rect x="20" y="21" width="24" height="24" fill="#F1B202"/>
</g>
</svg>
