<svg width="65" height="65" viewBox="0 0 65 65" fill="none" xmlns="http://www.w3.org/2000/svg">
<circle cx="32.5" cy="32.5" r="32" stroke="#222222"/>
<path fill-rule="evenodd" clip-rule="evenodd" d="M31.1044 22.5574L28.2468 28.3465L21.8565 29.2805C21.0365 29.4004 20.7098 30.4082 21.3034 30.9864L25.9266 35.4894L24.8355 41.851C24.6954 42.6679 25.5529 43.2909 26.2865 42.9051L32.0011 39.8998L37.7156 42.9051C38.4493 43.2909 39.3068 42.6679 39.1667 41.851L38.0756 35.4894L42.6988 30.9864C43.2924 30.4082 42.9656 29.4004 42.1457 29.2805L35.7554 28.3465L32.8978 22.5574C32.531 21.8142 31.4712 21.8142 31.1044 22.5574ZM29.0557 30.2495C29.3811 30.2019 29.6623 29.9975 29.8078 29.7026L32.0011 25.2593L34.1944 29.7026C34.3399 29.9975 34.6211 30.2019 34.9465 30.2495L39.8527 30.9666L36.3034 34.4236C36.0675 34.6534 35.9598 34.9845 36.0155 35.309L36.8529 40.1917L32.4665 37.8849C32.1752 37.7317 31.827 37.7317 31.5356 37.8849L27.1493 40.1917L27.9867 35.309C28.0424 34.9845 27.9347 34.6534 27.6988 34.4236L24.1495 30.9666L29.0557 30.2495Z" fill="#F1B202"/>
<mask id="mask0_21_470" style="mask-type:alpha" maskUnits="userSpaceOnUse" x="21" y="22" width="23" height="22">
<path fill-rule="evenodd" clip-rule="evenodd" d="M31.1044 22.5574L28.2468 28.3465L21.8565 29.2805C21.0365 29.4004 20.7098 30.4082 21.3034 30.9864L25.9266 35.4894L24.8355 41.851C24.6954 42.6679 25.5529 43.2909 26.2865 42.9051L32.0011 39.8998L37.7156 42.9051C38.4493 43.2909 39.3068 42.6679 39.1667 41.851L38.0756 35.4894L42.6988 30.9864C43.2924 30.4082 42.9656 29.4004 42.1457 29.2805L35.7554 28.3465L32.8978 22.5574C32.531 21.8142 31.4712 21.8142 31.1044 22.5574ZM29.0557 30.2495C29.3811 30.2019 29.6623 29.9975 29.8078 29.7026L32.0011 25.2593L34.1944 29.7026C34.3399 29.9975 34.6211 30.2019 34.9465 30.2495L39.8527 30.9666L36.3034 34.4236C36.0675 34.6534 35.9598 34.9845 36.0155 35.309L36.8529 40.1917L32.4665 37.8849C32.1752 37.7317 31.827 37.7317 31.5356 37.8849L27.1493 40.1917L27.9867 35.309C28.0424 34.9845 27.9347 34.6534 27.6988 34.4236L24.1495 30.9666L29.0557 30.2495Z" fill="white"/>
</mask>
<g mask="url(#mask0_21_470)">
<rect x="20" y="21" width="24" height="24" fill="#F1B202"/>
</g>
</svg>
