<svg width="65" height="65" viewBox="0 0 65 65" fill="none" xmlns="http://www.w3.org/2000/svg">
<circle cx="32.5" cy="32.5" r="32" stroke="#222222"/>
<path fill-rule="evenodd" clip-rule="evenodd" d="M41.83 30C41.6163 29.9991 41.4177 29.8904 41.2988 29.7152C41.2845 29.647 41.2631 29.5803 41.2349 29.5162C41.1276 29.2731 41.1791 28.9892 41.3649 28.7993L41.4171 28.7471C41.98 28.1848 42.2966 27.4212 42.2966 26.625C42.2966 25.8288 41.98 25.0652 41.4167 24.5025C40.8548 23.94 40.0912 23.6234 39.295 23.6234C38.4988 23.6234 37.7352 23.94 37.1725 24.5033L37.1129 24.5629C36.9308 24.7409 36.6469 24.7924 36.4038 24.6851C36.1558 24.5788 36.001 24.3451 36 24.086L36 24C36 22.3431 34.6569 21 33 21C31.3431 21 30 22.3431 30 24V24.17C29.9991 24.3837 29.8904 24.5823 29.7152 24.7012C29.647 24.7155 29.5803 24.7369 29.5162 24.7651C29.2731 24.8724 28.9892 24.8209 28.7993 24.6351L28.7471 24.5829C28.1848 24.02 27.4212 23.7034 26.625 23.7034C25.8288 23.7034 25.0652 24.02 24.5025 24.5833C23.94 25.1452 23.6234 25.9088 23.6234 26.705C23.6234 27.5012 23.94 28.2648 24.5033 28.8275L24.5629 28.8871C24.7409 29.0692 24.7924 29.3531 24.6851 29.5962C24.5693 29.9053 24.3334 30.074 24 30.08C22.3431 30.08 21 31.4231 21 33.08C21 34.7369 22.3431 36.08 24 36.08H24.17C24.4251 36.081 24.6588 36.2358 24.7609 36.4739C24.8724 36.7269 24.8209 37.0108 24.6351 37.2007L24.5829 37.2529C24.02 37.8152 23.7034 38.5788 23.7034 39.375C23.7034 40.1712 24.02 40.9348 24.5833 41.4975C25.1452 42.06 25.9088 42.3766 26.705 42.3766C27.5012 42.3766 28.2648 42.06 28.8275 41.4967L28.8871 41.4371C29.0692 41.2591 29.3531 41.2076 29.5962 41.3149C29.9053 41.4307 30.074 41.6666 30.08 42C30.08 43.6569 31.4231 45 33.08 45C34.7369 45 36.08 43.6569 36.08 42V41.83C36.081 41.5749 36.2358 41.3412 36.4739 41.2391C36.7269 41.1276 37.0108 41.1791 37.2007 41.3649L37.2529 41.4171C37.8152 41.98 38.5788 42.2966 39.375 42.2966C40.1712 42.2966 40.9348 41.98 41.4975 41.4167C42.06 40.8548 42.3766 40.0912 42.3766 39.295C42.3766 38.4988 42.06 37.7352 41.4967 37.1725L41.4371 37.1129C41.2591 36.9308 41.2076 36.6469 41.3191 36.3939C41.4212 36.1558 41.6549 36.001 41.914 36L42 36C43.6569 36 45 34.6569 45 33C45 31.3431 43.6569 30 42 30H41.83ZM27.3929 26.0571C28.1246 26.773 29.1847 27.0028 30.1298 26.6715C30.2205 26.6597 30.3094 26.6354 30.3939 26.5991C31.3647 26.1831 31.9958 25.2302 32 24.174L32 24C32 23.4477 32.4477 23 33 23C33.5523 23 34 23.4477 34 24V24.09C34.0042 25.1502 34.6353 26.1031 35.6061 26.5191C36.5873 26.9523 37.7448 26.7424 38.5193 25.9849L38.5871 25.9171C38.7751 25.7289 39.0296 25.6234 39.295 25.6234C39.5604 25.6234 39.8149 25.7289 40.0025 25.9167C40.1911 26.1051 40.2966 26.3596 40.2966 26.625C40.2966 26.8904 40.1911 27.1449 40.0033 27.3325L39.9429 27.3929C39.227 28.1246 38.9972 29.1847 39.3285 30.1298C39.3403 30.2205 39.3646 30.3094 39.4009 30.3939C39.8169 31.3647 40.7698 31.9958 41.826 32L42 32C42.5523 32 43 32.4477 43 33C43 33.5523 42.5523 34 42 34H41.91C40.8498 34.0042 39.8969 34.6353 39.4851 35.5962C39.0477 36.5873 39.2576 37.7448 40.0151 38.5193L40.0829 38.5871C40.2711 38.7751 40.3766 39.0296 40.3766 39.295C40.3766 39.5604 40.2711 39.8149 40.0833 40.0025C39.8949 40.1911 39.6404 40.2966 39.375 40.2966C39.1096 40.2966 38.8551 40.1911 38.6675 40.0033L38.6071 39.9429C37.8248 39.1776 36.6673 38.9677 35.6762 39.4051C34.7153 39.8169 34.0842 40.7698 34.08 41.826L34.08 42C34.08 42.5523 33.6323 43 33.08 43C32.5277 43 32.08 42.5523 32.08 42V41.91C32.0543 40.7988 31.3664 39.8371 30.3452 39.4615C29.4127 39.0477 28.2552 39.2576 27.4807 40.0151L27.4129 40.0829C27.2249 40.2711 26.9704 40.3766 26.705 40.3766C26.4396 40.3766 26.1851 40.2711 25.9975 40.0833C25.8089 39.8949 25.7034 39.6404 25.7034 39.375C25.7034 39.1096 25.8089 38.8551 25.9967 38.6675L26.0571 38.6071C26.8224 37.8248 27.0323 36.6673 26.5949 35.6762C26.1831 34.7153 25.2302 34.0842 24.174 34.08L24 34.08C23.4477 34.08 23 33.6323 23 33.08C23 32.5277 23.4477 32.08 24 32.08H24.09C25.2012 32.0543 26.1629 31.3664 26.5385 30.3452C26.9523 29.4127 26.7424 28.2552 25.9849 27.4807L25.9171 27.4129C25.7289 27.2249 25.6234 26.9704 25.6234 26.705C25.6234 26.4396 25.7289 26.1851 25.9167 25.9975C26.1051 25.8089 26.3596 25.7034 26.625 25.7034C26.8904 25.7034 27.1449 25.8089 27.3325 25.9967L27.3929 26.0571ZM33 37C30.7909 37 29 35.2091 29 33C29 30.7909 30.7909 29 33 29C35.2091 29 37 30.7909 37 33C37 35.2091 35.2091 37 33 37ZM35 33C35 34.1046 34.1046 35 33 35C31.8954 35 31 34.1046 31 33C31 31.8954 31.8954 31 33 31C34.1046 31 35 31.8954 35 33Z" fill="#F1B202"/>
<mask id="mask0_21_478" style="mask-type:alpha" maskUnits="userSpaceOnUse" x="21" y="21" width="24" height="24">
<path fill-rule="evenodd" clip-rule="evenodd" d="M41.83 30C41.6163 29.9991 41.4177 29.8904 41.2988 29.7152C41.2845 29.647 41.2631 29.5803 41.2349 29.5162C41.1276 29.2731 41.1791 28.9892 41.3649 28.7993L41.4171 28.7471C41.98 28.1848 42.2966 27.4212 42.2966 26.625C42.2966 25.8288 41.98 25.0652 41.4167 24.5025C40.8548 23.94 40.0912 23.6234 39.295 23.6234C38.4988 23.6234 37.7352 23.94 37.1725 24.5033L37.1129 24.5629C36.9308 24.7409 36.6469 24.7924 36.4038 24.6851C36.1558 24.5788 36.001 24.3451 36 24.086L36 24C36 22.3431 34.6569 21 33 21C31.3431 21 30 22.3431 30 24V24.17C29.9991 24.3837 29.8904 24.5823 29.7152 24.7012C29.647 24.7155 29.5803 24.7369 29.5162 24.7651C29.2731 24.8724 28.9892 24.8209 28.7993 24.6351L28.7471 24.5829C28.1848 24.02 27.4212 23.7034 26.625 23.7034C25.8288 23.7034 25.0652 24.02 24.5025 24.5833C23.94 25.1452 23.6234 25.9088 23.6234 26.705C23.6234 27.5012 23.94 28.2648 24.5033 28.8275L24.5629 28.8871C24.7409 29.0692 24.7924 29.3531 24.6851 29.5962C24.5693 29.9053 24.3334 30.074 24 30.08C22.3431 30.08 21 31.4231 21 33.08C21 34.7369 22.3431 36.08 24 36.08H24.17C24.4251 36.081 24.6588 36.2358 24.7609 36.4739C24.8724 36.7269 24.8209 37.0108 24.6351 37.2007L24.5829 37.2529C24.02 37.8152 23.7034 38.5788 23.7034 39.375C23.7034 40.1712 24.02 40.9348 24.5833 41.4975C25.1452 42.06 25.9088 42.3766 26.705 42.3766C27.5012 42.3766 28.2648 42.06 28.8275 41.4967L28.8871 41.4371C29.0692 41.2591 29.3531 41.2076 29.5962 41.3149C29.9053 41.4307 30.074 41.6666 30.08 42C30.08 43.6569 31.4231 45 33.08 45C34.7369 45 36.08 43.6569 36.08 42V41.83C36.081 41.5749 36.2358 41.3412 36.4739 41.2391C36.7269 41.1276 37.0108 41.1791 37.2007 41.3649L37.2529 41.4171C37.8152 41.98 38.5788 42.2966 39.375 42.2966C40.1712 42.2966 40.9348 41.98 41.4975 41.4167C42.06 40.8548 42.3766 40.0912 42.3766 39.295C42.3766 38.4988 42.06 37.7352 41.4967 37.1725L41.4371 37.1129C41.2591 36.9308 41.2076 36.6469 41.3191 36.3939C41.4212 36.1558 41.6549 36.001 41.914 36L42 36C43.6569 36 45 34.6569 45 33C45 31.3431 43.6569 30 42 30H41.83ZM27.3929 26.0571C28.1246 26.773 29.1847 27.0028 30.1298 26.6715C30.2205 26.6597 30.3094 26.6354 30.3939 26.5991C31.3647 26.1831 31.9958 25.2302 32 24.174L32 24C32 23.4477 32.4477 23 33 23C33.5523 23 34 23.4477 34 24V24.09C34.0042 25.1502 34.6353 26.1031 35.6061 26.5191C36.5873 26.9523 37.7448 26.7424 38.5193 25.9849L38.5871 25.9171C38.7751 25.7289 39.0296 25.6234 39.295 25.6234C39.5604 25.6234 39.8149 25.7289 40.0025 25.9167C40.1911 26.1051 40.2966 26.3596 40.2966 26.625C40.2966 26.8904 40.1911 27.1449 40.0033 27.3325L39.9429 27.3929C39.227 28.1246 38.9972 29.1847 39.3285 30.1298C39.3403 30.2205 39.3646 30.3094 39.4009 30.3939C39.8169 31.3647 40.7698 31.9958 41.826 32L42 32C42.5523 32 43 32.4477 43 33C43 33.5523 42.5523 34 42 34H41.91C40.8498 34.0042 39.8969 34.6353 39.4851 35.5962C39.0477 36.5873 39.2576 37.7448 40.0151 38.5193L40.0829 38.5871C40.2711 38.7751 40.3766 39.0296 40.3766 39.295C40.3766 39.5604 40.2711 39.8149 40.0833 40.0025C39.8949 40.1911 39.6404 40.2966 39.375 40.2966C39.1096 40.2966 38.8551 40.1911 38.6675 40.0033L38.6071 39.9429C37.8248 39.1776 36.6673 38.9677 35.6762 39.4051C34.7153 39.8169 34.0842 40.7698 34.08 41.826L34.08 42C34.08 42.5523 33.6323 43 33.08 43C32.5277 43 32.08 42.5523 32.08 42V41.91C32.0543 40.7988 31.3664 39.8371 30.3452 39.4615C29.4127 39.0477 28.2552 39.2576 27.4807 40.0151L27.4129 40.0829C27.2249 40.2711 26.9704 40.3766 26.705 40.3766C26.4396 40.3766 26.1851 40.2711 25.9975 40.0833C25.8089 39.8949 25.7034 39.6404 25.7034 39.375C25.7034 39.1096 25.8089 38.8551 25.9967 38.6675L26.0571 38.6071C26.8224 37.8248 27.0323 36.6673 26.5949 35.6762C26.1831 34.7153 25.2302 34.0842 24.174 34.08L24 34.08C23.4477 34.08 23 33.6323 23 33.08C23 32.5277 23.4477 32.08 24 32.08H24.09C25.2012 32.0543 26.1629 31.3664 26.5385 30.3452C26.9523 29.4127 26.7424 28.2552 25.9849 27.4807L25.9171 27.4129C25.7289 27.2249 25.6234 26.9704 25.6234 26.705C25.6234 26.4396 25.7289 26.1851 25.9167 25.9975C26.1051 25.8089 26.3596 25.7034 26.625 25.7034C26.8904 25.7034 27.1449 25.8089 27.3325 25.9967L27.3929 26.0571ZM33 37C30.7909 37 29 35.2091 29 33C29 30.7909 30.7909 29 33 29C35.2091 29 37 30.7909 37 33C37 35.2091 35.2091 37 33 37ZM35 33C35 34.1046 34.1046 35 33 35C31.8954 35 31 34.1046 31 33C31 31.8954 31.8954 31 33 31C34.1046 31 35 31.8954 35 33Z" fill="white"/>
</mask>
<g mask="url(#mask0_21_478)">
<rect x="21" y="21" width="24" height="24" fill="#F1B202"/>
</g>
</svg>
