<svg width="65" height="65" viewBox="0 0 65 65" fill="none" xmlns="http://www.w3.org/2000/svg">
<circle cx="32.5" cy="32.5" r="32" stroke="#222222"/>
<path fill-rule="evenodd" clip-rule="evenodd" d="M39.7071 22.2929L43.7071 26.2929C44.0976 26.6834 44.0976 27.3166 43.7071 27.7071L33.7071 37.7071C33.5196 37.8946 33.2652 38 33 38H29C28.4477 38 28 37.5523 28 37V33C28 32.7348 28.1054 32.4804 28.2929 32.2929L38.2929 22.2929C38.6834 21.9024 39.3166 21.9024 39.7071 22.2929ZM40 35.66V41C40 41.5523 39.5523 42 39 42H25C24.4477 42 24 41.5523 24 41V27C24 26.4477 24.4477 26 25 26H30.34C30.8923 26 31.34 25.5523 31.34 25C31.34 24.4477 30.8923 24 30.34 24H25C23.3431 24 22 25.3431 22 27V41C22 42.6569 23.3431 44 25 44H39C40.6569 44 42 42.6569 42 41V35.66C42 35.1077 41.5523 34.66 41 34.66C40.4477 34.66 40 35.1077 40 35.66ZM30 36V33.4142L39 24.4142L41.5858 27L32.5858 36H30Z" fill="#F1B202"/>
<mask id="mask0_21_486" style="mask-type:alpha" maskUnits="userSpaceOnUse" x="22" y="22" width="22" height="22">
<path fill-rule="evenodd" clip-rule="evenodd" d="M39.7071 22.2929L43.7071 26.2929C44.0976 26.6834 44.0976 27.3166 43.7071 27.7071L33.7071 37.7071C33.5196 37.8946 33.2652 38 33 38H29C28.4477 38 28 37.5523 28 37V33C28 32.7348 28.1054 32.4804 28.2929 32.2929L38.2929 22.2929C38.6834 21.9024 39.3166 21.9024 39.7071 22.2929ZM40 35.66V41C40 41.5523 39.5523 42 39 42H25C24.4477 42 24 41.5523 24 41V27C24 26.4477 24.4477 26 25 26H30.34C30.8923 26 31.34 25.5523 31.34 25C31.34 24.4477 30.8923 24 30.34 24H25C23.3431 24 22 25.3431 22 27V41C22 42.6569 23.3431 44 25 44H39C40.6569 44 42 42.6569 42 41V35.66C42 35.1077 41.5523 34.66 41 34.66C40.4477 34.66 40 35.1077 40 35.66ZM30 36V33.4142L39 24.4142L41.5858 27L32.5858 36H30Z" fill="white"/>
</mask>
<g mask="url(#mask0_21_486)">
<rect x="21" y="21" width="24" height="24" fill="#F1B202"/>
</g>
</svg>
