<svg width="159" height="48" viewBox="0 0 159 48" fill="none" xmlns="http://www.w3.org/2000/svg">
<path d="M153.111 0H5.88889C2.63655 0 0 2.68629 0 6V42C0 45.3137 2.63655 48 5.88889 48H153.111C156.363 48 159 45.3137 159 42V6C159 2.68629 156.363 0 153.111 0Z" fill="black"/>
<path d="M153.111 0.96C154.423 0.96 155.681 1.491 156.609 2.43618C157.537 3.38137 158.058 4.66331 158.058 6V42C158.058 43.3367 157.537 44.6186 156.609 45.5638C155.681 46.509 154.423 47.04 153.111 47.04H5.88889C4.57695 47.04 3.31875 46.509 2.39107 45.5638C1.46339 44.6186 0.942222 43.3367 0.942222 42V6C0.942222 4.66331 1.46339 3.38137 2.39107 2.43618C3.31875 1.491 4.57695 0.96 5.88889 0.96H153.111ZM153.111 0H5.88889C4.32706 0 2.8292 0.632141 1.72482 1.75736C0.620435 2.88258 0 4.4087 0 6V42C0 43.5913 0.620435 45.1174 1.72482 46.2426C2.8292 47.3679 4.32706 48 5.88889 48H153.111C154.673 48 156.171 47.3679 157.275 46.2426C158.38 45.1174 159 43.5913 159 42V6C159 4.4087 158.38 2.88258 157.275 1.75736C156.171 0.632141 154.673 0 153.111 0Z" fill="black"/>
<path d="M80.2538 26.1C79.2649 26.1047 78.2994 26.4078 77.4794 26.9711C76.6593 27.5344 76.0214 28.3325 75.6461 29.2648C75.2709 30.1972 75.1751 31.2218 75.3709 32.2095C75.5667 33.1973 76.0453 34.1037 76.7463 34.8146C77.4472 35.5254 78.3392 36.0088 79.3095 36.2036C80.2798 36.3985 81.2851 36.2961 82.1983 35.9094C83.1116 35.5227 83.892 34.869 84.441 34.0309C84.99 33.1927 85.2829 32.2076 85.283 31.2C85.2926 30.5255 85.1689 29.8559 84.9192 29.2312C84.6696 28.6064 84.2991 28.0392 83.8299 27.5634C83.3606 27.0875 82.8022 26.7127 82.1879 26.4613C81.5735 26.2099 80.9158 26.087 80.2538 26.1ZM80.2538 34.296C79.6456 34.3393 79.0387 34.1952 78.5119 33.8824C77.9851 33.5696 77.5628 33.1026 77.3 32.5421C77.0372 31.9815 76.9459 31.3534 77.0381 30.7393C77.1303 30.1253 77.4017 29.5536 77.817 29.0988C78.2323 28.644 78.7722 28.3269 79.3667 28.1889C79.9612 28.0509 80.5827 28.0982 81.1503 28.3249C81.718 28.5515 82.2057 28.9469 82.5499 29.4596C82.8942 29.9723 83.079 30.5787 83.0805 31.2C83.0995 31.5936 83.0409 31.9871 82.9082 32.3573C82.7756 32.7274 82.5715 33.0668 82.3081 33.3554C82.0446 33.6439 81.7271 33.8758 81.3743 34.0373C81.0215 34.1989 80.6405 34.2868 80.2538 34.296ZM69.2887 26.1C68.2992 26.1023 67.3326 26.4035 66.511 26.9653C65.6894 27.5271 65.0497 28.3245 64.6726 29.2566C64.2956 30.1887 64.1981 31.2137 64.3926 32.2022C64.587 33.1908 65.0647 34.0984 65.7652 34.8104C66.4657 35.5225 67.3576 36.007 68.3283 36.2028C69.299 36.3986 70.3048 36.2969 71.2188 35.9106C72.1327 35.5242 72.9138 34.8705 73.4633 34.0321C74.0128 33.1937 74.3061 32.2081 74.3061 31.2C74.3157 30.5255 74.192 29.8559 73.9423 29.2312C73.6927 28.6064 73.3222 28.0392 72.853 27.5634C72.3837 27.0875 71.8253 26.7127 71.211 26.4613C70.5966 26.2099 69.9389 26.087 69.277 26.1H69.2887ZM69.2887 34.296C68.6802 34.3417 68.0723 34.1998 67.544 33.8886C67.0158 33.5774 66.5917 33.1114 66.327 32.5513C66.0624 31.9911 65.9693 31.3627 66.0601 30.7479C66.1508 30.1332 66.4211 29.5605 66.8358 29.1044C67.2505 28.6483 67.7903 28.33 68.385 28.1909C68.9797 28.0518 69.6017 28.0983 70.1701 28.3244C70.7385 28.5505 71.2269 28.9457 71.5718 29.4586C71.9166 29.9715 72.102 30.5783 72.1036 31.2C72.1226 31.5936 72.064 31.9871 71.9313 32.3573C71.7987 32.7274 71.5946 33.0668 71.3312 33.3554C71.0677 33.6439 70.7502 33.8758 70.3974 34.0373C70.0446 34.1989 69.6636 34.2868 69.277 34.296H69.2887ZM56.2272 27.672V29.832H61.3152C61.2354 30.8493 60.8203 31.8093 60.1374 32.556C59.6284 33.0842 59.0164 33.4981 58.3409 33.7709C57.6655 34.0437 56.9414 34.1694 56.2154 34.14C54.716 34.14 53.2781 33.5331 52.2179 32.4529C51.1577 31.3727 50.5621 29.9076 50.5621 28.38C50.5621 26.8523 51.1577 25.3872 52.2179 24.307C53.2781 23.2268 54.716 22.62 56.2154 22.62C57.6497 22.5961 59.0347 23.1528 60.0667 24.168L61.5625 22.644C60.8658 21.9252 60.0346 21.3562 59.1182 20.9708C58.2017 20.5853 57.2186 20.3912 56.2272 20.4C55.1801 20.3584 54.1356 20.5327 53.1563 20.9123C52.1769 21.2919 51.2828 21.8691 50.5276 22.6092C49.7724 23.3493 49.1716 24.2371 48.7612 25.2194C48.3508 26.2017 48.1393 27.2583 48.1393 28.326C48.1393 29.3936 48.3508 30.4502 48.7612 31.4325C49.1716 32.4148 49.7724 33.3027 50.5276 34.0427C51.2828 34.7828 52.1769 35.36 53.1563 35.7396C54.1356 36.1192 55.1801 36.2935 56.2272 36.252C57.2353 36.2984 58.2415 36.1243 59.178 35.7413C60.1146 35.3584 60.9598 34.7755 61.6567 34.032C62.8907 32.6507 63.5495 30.8349 63.4941 28.968C63.4979 28.5131 63.4584 28.059 63.3763 27.612L56.2272 27.672ZM109.592 29.352C109.285 28.4312 108.711 27.6273 107.945 27.0466C107.18 26.4658 106.259 26.1357 105.305 26.1C104.661 26.0987 104.023 26.232 103.432 26.4918C102.84 26.7516 102.307 27.1322 101.865 27.6102C101.424 28.0882 101.083 28.6534 100.864 29.2708C100.646 29.8883 100.554 30.5448 100.594 31.2C100.58 31.8706 100.698 32.5374 100.943 33.1604C101.187 33.7834 101.552 34.3498 102.016 34.8258C102.48 35.3019 103.033 35.6778 103.643 35.931C104.252 36.1843 104.906 36.3098 105.564 36.3C106.388 36.3045 107.2 36.1008 107.928 35.707C108.655 35.3133 109.276 34.7419 109.734 34.044L108.026 32.844C107.771 33.2769 107.41 33.635 106.979 33.8832C106.547 34.1314 106.06 34.2612 105.564 34.26C105.054 34.2798 104.55 34.1427 104.117 33.8666C103.684 33.5906 103.343 33.1882 103.138 32.712L109.84 29.892L109.592 29.352ZM102.761 31.056C102.737 30.6848 102.786 30.3125 102.905 29.9609C103.025 29.6093 103.211 29.2854 103.455 29.0083C103.698 28.7311 103.994 28.5063 104.324 28.3469C104.653 28.1875 105.011 28.0967 105.376 28.08C105.756 28.0544 106.135 28.1432 106.465 28.3352C106.796 28.5272 107.065 28.814 107.237 29.16L102.761 31.056ZM97.3198 36H99.5223V21H97.3198V36ZM93.7158 27.24H93.6334C93.3015 26.8618 92.8948 26.5595 92.4402 26.3527C91.9855 26.1459 91.4931 26.0393 90.9952 26.04C89.7081 26.1035 88.4943 26.6693 87.6055 27.6199C86.7167 28.5704 86.2209 29.833 86.2209 31.146C86.2209 32.4589 86.7167 33.7215 87.6055 34.6721C88.4943 35.6226 89.7081 36.1884 90.9952 36.252C91.4943 36.2605 91.9891 36.1575 92.445 35.9502C92.9008 35.7428 93.3064 35.4362 93.6334 35.052H93.7041V35.784C93.7041 37.74 92.6794 38.784 91.0305 38.784C90.4813 38.7709 89.9484 38.5916 89.4996 38.2689C89.0507 37.9462 88.7063 37.4947 88.5101 36.972L86.5903 37.788C86.9517 38.6836 87.5674 39.4488 88.3585 39.9855C89.1497 40.5221 90.0801 40.8057 91.0305 40.8C93.6098 40.8 95.7416 39.252 95.7416 35.484V26.4H93.7158V27.24ZM91.1954 34.296C90.4357 34.2277 89.7286 33.872 89.2135 33.299C88.6984 32.7259 88.4128 31.977 88.4128 31.2C88.4128 30.4229 88.6984 29.674 89.2135 29.1009C89.7286 28.5279 90.4357 28.1722 91.1954 28.104C91.5721 28.1236 91.9411 28.22 92.2807 28.3872C92.6203 28.5544 92.9236 28.7892 93.1727 29.0777C93.4219 29.3663 93.6118 29.7027 93.7314 30.0671C93.851 30.4316 93.8977 30.8168 93.869 31.2C93.9011 31.5848 93.8563 31.9723 93.7372 32.3389C93.6182 32.7056 93.4274 33.0439 93.1764 33.3333C92.9254 33.6227 92.6193 33.8572 92.2768 34.0227C91.9343 34.1882 91.5624 34.2811 91.1836 34.296H91.1954ZM119.91 21H114.645V36H116.847V30.312H119.921C120.549 30.3579 121.179 30.2716 121.773 30.0584C122.366 29.8453 122.91 29.5098 123.371 29.0729C123.832 28.6361 124.199 28.1072 124.45 27.5194C124.702 26.9315 124.831 26.2971 124.831 25.656C124.831 25.0148 124.702 24.3804 124.45 23.7926C124.199 23.2047 123.832 22.6758 123.371 22.239C122.91 21.8021 122.366 21.4667 121.773 21.2535C121.179 21.0403 120.549 20.954 119.921 21H119.91ZM119.91 28.2H116.836V23.088H119.957C120.627 23.088 121.269 23.3591 121.743 23.8419C122.217 24.3246 122.483 24.9793 122.483 25.662C122.483 26.3446 122.217 26.9993 121.743 27.482C121.269 27.9648 120.627 28.236 119.957 28.236L119.91 28.2ZM133.489 26.04C132.688 25.9911 131.889 26.182 131.192 26.5892C130.496 26.9964 129.931 27.6021 129.567 28.332L131.523 29.16C131.715 28.798 132.007 28.5009 132.363 28.3049C132.718 28.1089 133.122 28.0224 133.525 28.056C133.804 28.0227 134.088 28.0465 134.358 28.1259C134.629 28.2054 134.881 28.339 135.1 28.5188C135.319 28.6986 135.501 28.9212 135.635 29.1734C135.769 29.4257 135.852 29.7026 135.88 29.988V30.144C135.173 29.7624 134.384 29.5645 133.584 29.568C131.475 29.568 129.344 30.768 129.344 32.94C129.364 33.4031 129.476 33.8572 129.672 34.2756C129.868 34.694 130.145 35.0681 130.485 35.3757C130.825 35.6834 131.223 35.9184 131.654 36.0668C132.085 36.2152 132.541 36.2741 132.995 36.24C133.549 36.2805 134.105 36.1682 134.602 35.9149C135.099 35.6615 135.52 35.2764 135.821 34.8H135.892V36H138.012V30.228C138.012 27.6 136.057 26.076 133.548 26.076L133.489 26.04ZM133.219 34.26C132.5 34.26 131.499 33.888 131.499 32.988C131.499 31.788 132.747 31.392 133.855 31.392C134.554 31.3744 135.246 31.5484 135.857 31.896C135.783 32.5456 135.481 33.1463 135.008 33.5873C134.534 34.0284 133.919 34.28 133.277 34.296L133.219 34.26ZM145.738 26.4L143.218 32.904H143.147L140.533 26.4H138.177L142.099 35.496L139.861 40.548H142.158L148.188 26.4H145.738ZM125.94 36H128.142V21H125.94V36Z" fill="white"/>
<path d="M55.7767 12.363C55.7967 12.8031 55.7288 13.2428 55.5769 13.6554C55.4251 14.0679 55.1925 14.4448 54.8934 14.763C54.5594 15.1165 54.156 15.3943 53.7096 15.5783C53.2631 15.7623 52.7836 15.8484 52.3023 15.831C51.572 15.8251 50.8597 15.5999 50.2546 15.1834C49.6495 14.7669 49.1784 14.1777 48.9005 13.4897C48.6226 12.8016 48.5501 12.0453 48.6922 11.3155C48.8344 10.5857 49.1847 9.9148 49.6994 9.38697C50.0377 9.03511 50.4432 8.75772 50.8909 8.57195C51.3386 8.38618 51.819 8.296 52.3023 8.30697C52.8002 8.30528 53.2932 8.40737 53.751 8.60697C54.1771 8.78212 54.5565 9.05764 54.8581 9.41097L54.2338 10.047C53.9988 9.76208 53.7019 9.5368 53.3667 9.38893C53.0314 9.24107 52.667 9.17466 52.3023 9.19497C51.9344 9.19313 51.5699 9.267 51.2307 9.41216C50.8916 9.55731 50.5846 9.77076 50.3284 10.0397C50.0721 10.3086 49.8718 10.6275 49.7394 10.9773C49.6071 11.327 49.5454 11.7004 49.5581 12.075C49.5503 12.6343 49.7054 13.1835 50.0037 13.6532C50.3019 14.1229 50.73 14.492 51.234 14.7141C51.7379 14.9361 52.2951 15.0012 52.8353 14.901C53.3755 14.8007 53.8744 14.5398 54.2692 14.151C54.6316 13.7508 54.8406 13.2312 54.8581 12.687H52.3023V11.823H55.7296C55.761 12.0012 55.7768 12.1819 55.7767 12.363ZM61.171 9.36297H57.991V11.643H60.8883V12.507H57.991V14.787H61.171V15.675H57.0487V8.47497H61.171V9.36297ZM65.0341 15.675H64.1272V9.36297H62.1485V8.47497H67.0598V9.36297H65.0341V15.675ZM70.5225 15.675V8.47497H71.4294V15.675H70.5225ZM75.4574 15.675H74.5505V9.36297H72.5718V8.47497H77.4243V9.36297H75.4574V15.675ZM86.6227 14.739C85.9342 15.4366 85.0027 15.8282 84.0316 15.8282C83.0606 15.8282 82.129 15.4366 81.4405 14.739C80.7713 14.0172 80.3984 13.0619 80.3984 12.069C80.3984 11.076 80.7713 10.1207 81.4405 9.39897C81.7799 9.05066 82.1836 8.77422 82.6283 8.58558C83.073 8.39693 83.5499 8.29981 84.0316 8.29981C84.5133 8.29981 84.9903 8.39693 85.435 8.58558C85.8797 8.77422 86.2834 9.05066 86.6227 9.39897C87.2946 10.1194 87.6693 11.0752 87.6693 12.069C87.6693 13.0628 87.2946 14.0186 86.6227 14.739ZM82.1118 14.139C82.6217 14.6563 83.312 14.9468 84.0316 14.9468C84.7512 14.9468 85.4415 14.6563 85.9514 14.139C86.4546 13.5738 86.7333 12.838 86.7333 12.075C86.7333 11.3119 86.4546 10.5761 85.9514 10.011C85.4415 9.49362 84.7512 9.20316 84.0316 9.20316C83.312 9.20316 82.6217 9.49362 82.1118 10.011C81.6087 10.5761 81.3299 11.3119 81.3299 12.075C81.3299 12.838 81.6087 13.5738 82.1118 14.139ZM88.943 15.675V8.47497H90.0501L93.4892 14.079V8.47497H94.3961V15.675H93.4539L89.8616 9.80697V15.675H88.943Z" fill="white"/>
<path fill-rule="evenodd" clip-rule="evenodd" d="M84.0316 8.41981C83.5655 8.41981 83.1039 8.5138 82.6735 8.69636C82.2436 8.87873 81.8533 9.14588 81.5251 9.48246C80.8772 10.1818 80.5162 11.1072 80.5162 12.069C80.5162 13.0306 80.8771 13.9559 81.5249 14.6552C82.1912 15.3296 83.0923 15.7082 84.0316 15.7082C84.971 15.7082 85.8722 15.3296 86.5385 14.6551C87.1889 13.9571 87.5515 13.0314 87.5515 12.069C87.5515 11.1064 87.1888 10.1806 86.5383 9.48261C86.21 9.14597 85.8197 8.87875 85.3897 8.69636C84.9594 8.5138 84.4978 8.41981 84.0316 8.41981ZM82.583 8.47479C83.042 8.28006 83.5344 8.17981 84.0316 8.17981C84.5289 8.17981 85.0212 8.28006 85.4803 8.47479C85.9393 8.66952 86.356 8.95488 86.7063 9.31443L86.7081 9.31629C87.4008 10.059 87.7871 11.0444 87.7871 12.069C87.7871 13.0935 87.4008 14.0789 86.7081 14.8216L86.7058 14.8241C85.9952 15.5441 85.0338 15.9482 84.0316 15.9482C83.0295 15.9482 82.0681 15.544 81.3575 14.8241L81.3549 14.8214C80.665 14.0774 80.2806 13.0925 80.2806 12.069C80.2806 11.0454 80.665 10.0606 81.3549 9.31656L81.3569 9.3144C81.7072 8.95486 82.1239 8.66952 82.583 8.47479ZM52.2997 8.42694C51.8325 8.41633 51.3681 8.50351 50.9353 8.68309C50.5025 8.86266 50.1105 9.13081 49.7835 9.47094L49.7829 9.47155C49.2846 9.98262 48.9454 10.6322 48.8078 11.3388C48.6702 12.0455 48.7403 12.7778 49.0094 13.444C49.2785 14.1102 49.7346 14.6807 50.3205 15.084C50.9064 15.4872 51.5961 15.7053 52.3032 15.711L52.3065 15.711C52.7712 15.7279 53.2343 15.6448 53.6654 15.4671C54.0964 15.2894 54.4859 15.0212 54.8084 14.6799C55.0965 14.3734 55.3204 14.0105 55.4667 13.6132C55.6129 13.2159 55.6784 12.7924 55.6591 12.3685L55.7767 12.363L55.6589 12.3629C55.659 12.2224 55.6491 12.082 55.6294 11.943H52.4201V12.567H54.9798L54.9758 12.6909C54.9574 13.2639 54.7373 13.811 54.3557 14.2323L54.3512 14.2374C53.9397 14.6427 53.4194 14.9146 52.8564 15.019C52.2933 15.1235 51.7125 15.0557 51.1872 14.8242C50.6619 14.5927 50.2157 14.2079 49.9048 13.7184C49.5944 13.2296 49.4328 12.6583 49.4403 12.0762C49.4274 11.6864 49.4918 11.298 49.6295 10.9341C49.7676 10.5693 49.9766 10.2366 50.2439 9.95611C50.5112 9.67558 50.8313 9.45293 51.1851 9.30152C51.5379 9.15057 51.9168 9.07352 52.2994 9.07496C52.6812 9.05425 53.0625 9.12402 53.4134 9.27881C53.7262 9.41675 54.0071 9.61885 54.239 9.87201L54.6956 9.40681C54.4191 9.10744 54.0819 8.87236 53.7069 8.71826L53.7046 8.71732C53.2616 8.52416 52.7845 8.42533 52.3027 8.42697L52.2997 8.42694ZM55.8945 12.3602C55.9149 12.8157 55.8443 13.2706 55.6872 13.6975C55.5298 14.1253 55.2886 14.516 54.9784 14.846C54.633 15.2116 54.2155 15.4992 53.7537 15.6896C53.2924 15.8797 52.797 15.9688 52.2997 15.951C51.5469 15.9446 50.8126 15.7122 50.1887 15.2828C49.5643 14.8531 49.0783 14.2452 48.7916 13.5353C48.5048 12.8254 48.4301 12.0451 48.5767 11.2921C48.7233 10.5393 49.0847 9.84724 49.6155 9.30269C49.965 8.93925 50.384 8.65272 50.8465 8.46081C51.3087 8.26905 51.8045 8.17585 52.3034 8.18697C52.8165 8.18543 53.3244 8.29065 53.7962 8.49616C54.2391 8.67841 54.6335 8.96492 54.9469 9.33223L55.019 9.41669L54.2263 10.2243L54.1437 10.1242C53.9204 9.85355 53.6383 9.63953 53.3199 9.49906C53.0014 9.35858 52.6552 9.2955 52.3087 9.31479L52.3017 9.31518C51.9497 9.31342 51.6009 9.3839 51.2764 9.52279C50.9518 9.66169 50.6581 9.86594 50.4129 10.1233C50.1677 10.3806 49.976 10.6858 49.8493 11.0204C49.7227 11.3551 49.6636 11.7124 49.6758 12.0708L49.676 12.0767C49.6686 12.6123 49.8169 13.1382 50.1025 13.588C50.3882 14.0378 50.7981 14.3913 51.2807 14.6039C51.7633 14.8166 52.2969 14.8789 52.8142 14.7829C53.3304 14.6871 53.8072 14.4381 54.1849 14.0671C54.4992 13.719 54.6911 13.2758 54.7329 12.807H52.1845V11.703H55.8281L55.8455 11.8018C55.878 11.9861 55.8944 12.173 55.8945 12.3602ZM56.931 8.35497H61.2887V9.48297H58.1087V11.523H61.0061V12.627H58.1087V14.667H61.2887V15.795H56.931V8.35497ZM57.1665 8.59497V15.555H61.0532V14.907H57.8732V12.387H60.7705V11.763H57.8732V9.24297H61.0532V8.59497H57.1665ZM62.0307 8.35497H67.1776V9.48297H65.1518V15.795H64.0094V9.48297H62.0307V8.35497ZM62.2663 8.59497V9.24297H64.245V15.555H64.9163V9.24297H66.9421V8.59497H62.2663ZM70.4047 8.35497H71.5472V15.795H70.4047V8.35497ZM70.6403 8.59497V15.555H71.3116V8.59497H70.6403ZM72.4541 8.35497H77.5421V9.48297H75.5752V15.795H74.4327V9.48297H72.4541V8.35497ZM72.6896 8.59497V9.24297H74.6683V15.555H75.3396V9.24297H77.3065V8.59497H72.6896ZM88.8252 8.35497H90.1153L93.3714 13.6607V8.35497H94.5138V15.795H93.3885L89.9794 10.2261V15.795H88.8252V8.35497ZM89.0607 8.59497V15.555H89.7439V9.38783L93.5192 15.555H94.2783V8.59497H93.607V14.4972L89.9848 8.59497H89.0607ZM82.0287 9.92594C82.5607 9.3862 83.2809 9.08316 84.0316 9.08316C84.7824 9.08316 85.5025 9.3862 86.0345 9.92594L86.0387 9.93024C86.5616 10.5175 86.8511 11.2821 86.8511 12.075C86.8511 12.8678 86.5615 13.6323 86.0386 14.2196L86.0346 14.2241C85.5026 14.7639 84.7824 15.0668 84.0316 15.0668C83.2809 15.0668 82.5607 14.7637 82.0287 14.224L82.1118 14.139L82.0246 14.2196C81.5018 13.6323 81.2121 12.8678 81.2121 12.075C81.2121 11.2821 81.5018 10.5176 82.0246 9.93035L82.0287 9.92594ZM82.1971 14.0561C82.6847 14.5497 83.3442 14.8268 84.0316 14.8268C84.7191 14.8268 85.3786 14.5497 85.8662 14.0561C86.3484 13.5133 86.6155 12.8072 86.6155 12.075C86.6155 11.3427 86.3484 10.6366 85.8662 10.0938C85.3786 9.60024 84.7191 9.32316 84.0316 9.32316C83.3442 9.32316 82.6847 9.60024 82.1971 10.0938C81.7148 10.6366 81.4477 11.3427 81.4477 12.075C81.4477 12.8072 81.7148 13.5133 82.1971 14.0561Z" fill="white"/>
<path d="M12.2959 9.04799C11.912 9.51732 11.7182 10.1181 11.7541 10.728V37.272C11.7182 37.8818 11.912 38.4827 12.2959 38.952L12.3783 39.036L26.971 24.18V23.832L12.3783 8.96399L12.2959 9.04799Z" fill="url(#paint0_linear_21_553)"/>
<path d="M31.7999 29.136L26.971 24.18V23.832L31.7999 18.864L31.9059 18.924L37.6888 22.272C39.3377 23.22 39.3377 24.78 37.6888 25.74L31.9295 29.076L31.7999 29.136Z" fill="url(#paint1_linear_21_553)"/>
<path d="M31.9412 29.064L26.971 24L12.2959 38.952C12.632 39.253 13.0607 39.4249 13.508 39.4381C13.9553 39.4512 14.3931 39.3048 14.7457 39.024L31.953 29.064" fill="url(#paint2_linear_21_553)"/>
<path d="M31.9412 18.936L14.7339 8.97599C14.3813 8.69521 13.9436 8.54873 13.4963 8.56188C13.049 8.57503 12.6202 8.74697 12.2841 9.04799L26.971 24L31.9412 18.936Z" fill="url(#paint3_linear_21_553)"/>
<path opacity="0.2" d="M31.7999 28.956L14.7339 38.856C14.3939 39.115 13.9807 39.255 13.5561 39.255C13.1316 39.255 12.7184 39.115 12.3783 38.856L12.2959 38.94L12.3783 39.024C12.7176 39.2849 13.1311 39.426 13.5561 39.426C13.9812 39.426 14.3946 39.2849 14.7339 39.024L31.9412 29.064L31.7999 28.956Z" fill="black"/>
<path opacity="0.12" d="M12.2959 38.784C11.912 38.3146 11.7182 37.7138 11.7541 37.104V37.284C11.7182 37.8938 11.912 38.4946 12.2959 38.964L12.3783 38.88L12.2959 38.784ZM37.6888 25.56L31.7999 28.956L31.9059 29.064L37.6888 25.728C38.0169 25.5709 38.2986 25.3285 38.5053 25.0251C38.7121 24.7217 38.8367 24.3681 38.8665 24C38.8003 24.3344 38.6597 24.6489 38.4555 24.9194C38.2514 25.1898 37.989 25.409 37.6888 25.56Z" fill="black"/>
<path opacity="0.25" d="M14.7339 9.14353L37.6888 22.4395C37.989 22.5905 38.2513 22.8097 38.4555 23.0801C38.6597 23.3506 38.8003 23.6651 38.8665 23.9995C38.8367 23.6314 38.7121 23.2778 38.5053 22.9744C38.2986 22.671 38.0169 22.4286 37.6888 22.2715L14.7339 8.97553C13.085 8.02753 11.7423 8.81953 11.7423 10.7395V10.9195C11.7776 8.98753 13.0968 8.19553 14.7339 9.14353Z" fill="white"/>
<defs>
<linearGradient id="paint0_linear_21_553" x1="25.6754" y1="10.452" x2="5.54294" y2="30.2116" gradientUnits="userSpaceOnUse">
<stop stop-color="#00A0FF"/>
<stop offset="0.01" stop-color="#00A1FF"/>
<stop offset="0.26" stop-color="#00BEFF"/>
<stop offset="0.51" stop-color="#00D2FF"/>
<stop offset="0.76" stop-color="#00DFFF"/>
<stop offset="1" stop-color="#00E3FF"/>
</linearGradient>
<linearGradient id="paint1_linear_21_553" x1="39.8441" y1="24" x2="11.3537" y2="24" gradientUnits="userSpaceOnUse">
<stop stop-color="#FFE000"/>
<stop offset="0.41" stop-color="#FFBD00"/>
<stop offset="0.78" stop-color="#FFA500"/>
<stop offset="1" stop-color="#FF9C00"/>
</linearGradient>
<linearGradient id="paint2_linear_21_553" x1="29.2441" y1="26.76" x2="1.93712" y2="53.5495" gradientUnits="userSpaceOnUse">
<stop stop-color="#FF3A44"/>
<stop offset="1" stop-color="#C31162"/>
</linearGradient>
<linearGradient id="paint3_linear_21_553" x1="8.59767" y1="0.215993" x2="20.7875" y2="12.1801" gradientUnits="userSpaceOnUse">
<stop stop-color="#32A071"/>
<stop offset="0.07" stop-color="#2DA771"/>
<stop offset="0.48" stop-color="#15CF74"/>
<stop offset="0.8" stop-color="#06E775"/>
<stop offset="1" stop-color="#00F076"/>
</linearGradient>
</defs>
</svg>
