<svg width="86" height="86" viewBox="0 0 86 86" fill="none" xmlns="http://www.w3.org/2000/svg">
<circle cx="43" cy="43" r="43" fill="#00C07F" fill-opacity="0.05"/>
<circle cx="43" cy="43" r="32" fill="#00C07F"/>
<path d="M37.54 36C37.6 36.89 37.75 37.76 37.99 38.59L36.79 39.79C36.38 38.59 36.12 37.32 36.03 36H37.54ZM47.4 48.02C48.25 48.26 49.12 48.41 50 48.47V49.96C48.68 49.87 47.41 49.61 46.2 49.21L47.4 48.02ZM38.5 34H35C34.45 34 34 34.45 34 35C34 44.39 41.61 52 51 52C51.55 52 52 51.55 52 51V47.51C52 46.96 51.55 46.51 51 46.51C49.76 46.51 48.55 46.31 47.43 45.94C47.33 45.9 47.22 45.89 47.12 45.89C46.86 45.89 46.61 45.99 46.41 46.18L44.21 48.38C41.38 46.93 39.06 44.62 37.62 41.79L39.82 39.59C40.1 39.31 40.18 38.92 40.07 38.57C39.7 37.45 39.5 36.25 39.5 35C39.5 34.45 39.05 34 38.5 34Z" fill="white"/>
</svg>
